<?xml version="1.0" encoding="utf-8"?>
<!-- Svg Vector Icons : http://www.onlinewebfonts.com/icon -->
<svg version="1.1" xmlns="http://www.w3.org/2000/svg" x="0px" y="0px" viewBox="0 0 256 256" enable-background="new 0 0 256 256" xml:space="preserve">
<metadata> Svg Vector Icons : http://www.onlinewebfonts.com/icon </metadata>
<g><g><g><path fill="#fff" d="M56.5,10.7c-11.6,1.8-21.6,7-30.2,15.6C17.5,35.1,12.4,45,10.6,57c-4.4,29.2,15.4,56.8,44.9,62.3c2.5,0.5,17.7,0.6,72.8,0.6c66.2,0,69.8,0,73.5-0.9c29-6.4,48-33.3,43.6-62.1c-1.8-12-6.9-21.9-15.7-30.7c-8.8-8.8-18.7-13.8-30.7-15.7C192.8,9.7,62.6,9.8,56.5,10.7z M201.4,27.3c13.8,4,23.8,14.2,27.6,28.1c0.8,2.9,1,5,1,9.7c0,4.7-0.2,6.8-1,9.7c-3.8,14.2-14.3,24.6-28.4,28.4c-5.2,1.4-14.2,1.4-19.4,0c-13.8-3.6-24.7-14.5-28.4-28.4c-1.4-5.2-1.4-14.2,0-19.4c4.1-15.5,16.6-26.8,32.5-29.3C189.5,25.5,197,26,201.4,27.3z"/><path fill="#fff" d="M59.3,136.2c-9.4,1-19.5,5-27,10.7c-15.5,11.6-24,30.6-22,49.6c1.4,13.6,7,24.8,16.8,34.3C34.6,237.9,43,242.3,54,245c3,0.7,9,0.8,71,1c48.2,0.1,69.1,0,72.3-0.4c18.4-2.1,34.8-13.8,43-30.7c4.3-8.8,6.1-17.9,5.5-27.1c-1.6-24.8-18.5-44.6-43.2-50.7c-3.9-1-4.3-1-72.8-1.1C91.9,136.1,60.2,136.1,59.3,136.2z M197.4,144.2c6.9,0.9,15.3,4.3,20.7,8.2c25.9,18.7,26.7,56.4,1.6,75.9c-5.2,4.1-10.8,6.8-17.8,8.6l-4.1,1.1H128H58.1l-4.1-1.1c-9.1-2.4-15.2-5.9-21.8-12.3c-7-6.9-10.9-13.6-13.2-22.8c-1.3-5.3-1.4-15.6-0.1-21c3.2-13.8,12.6-25.8,25-32c4.2-2.1,10.2-4.1,14.2-4.6C62.4,143.6,193.1,143.6,197.4,144.2z"/><path fill="#fff" d="M59.5,152c-15.8,2.5-28.5,13.9-32.6,29.3c-1.4,5.2-1.4,14.2,0,19.4c3.8,14.2,14.2,24.6,28.4,28.4c5.2,1.4,14.2,1.4,19.4,0c13.8-3.6,24.7-14.6,28.4-28.4c1.4-5.1,1.4-14.2,0-19.2c-4.6-17.2-19-28.9-36.5-29.7C64.3,151.7,61,151.8,59.5,152z M74.3,161c5,1.6,9,4.1,12.9,7.9c3.8,3.8,6.2,7.8,7.9,12.9c1,3.1,1.2,4.5,1.2,9.2c0,4.7-0.2,6.1-1.2,9.1c-1.8,5.4-4.2,9.4-8.2,13.4c-7.3,7.2-17.8,10.4-27.7,8.5c-2.5-0.5-5.5-1.5-8.3-2.9c-3.5-1.8-5-2.8-8.1-5.9c-3-3.1-4.1-4.6-5.9-8.1c-4.7-9.6-4.7-18.5,0-28.1c1.8-3.6,2.8-5,5.9-8.1c3.1-3.1,4.5-4.1,8.1-5.9c2.4-1.2,5.5-2.3,6.9-2.6c1.4-0.3,3-0.6,3.5-0.7C63.6,159.1,70.8,159.9,74.3,161z"/></g></g></g>
</svg>