<?xml version="1.0" encoding="utf-8"?>
<svg viewBox="334.128 152.075 950.872 1323.956" xmlns="http://www.w3.org/2000/svg">
  <path d="M 1211.044 266.741 C 1196.456 266.741 1184.631 253.914 1184.631 238.074 C 1184.631 222.248 1196.456 209.408 1211.044 209.408 C 1225.631 209.408 1237.456 222.248 1237.456 238.074 C 1237.456 253.914 1225.631 266.741 1211.044 266.741 Z M 1211.044 1439.538 C 1196.456 1439.538 1184.631 1425.538 1184.631 1408.271 C 1184.631 1390.991 1196.456 1376.991 1211.044 1376.991 C 1225.631 1376.991 1237.456 1390.991 1237.456 1408.271 C 1237.456 1425.538 1225.631 1439.538 1211.044 1439.538 Z M 809.564 1397.845 C 605.338 1397.845 439.781 1243.82 439.781 1053.823 C 439.781 863.826 605.338 709.804 809.564 709.804 C 1013.79 709.804 1179.348 863.826 1179.348 1053.823 C 1179.348 1243.82 1013.79 1397.845 809.564 1397.845 Z M 416.009 256.328 C 399.962 256.328 386.954 244.648 386.954 230.261 C 386.954 215.861 399.962 204.194 416.009 204.194 C 432.054 204.194 445.063 215.861 445.063 230.261 C 445.063 244.648 432.054 256.328 416.009 256.328 Z M 405.443 1439.538 C 389.397 1439.538 376.389 1426.711 376.389 1410.871 C 376.389 1395.045 389.397 1382.205 405.443 1382.205 C 421.489 1382.205 434.497 1395.045 434.497 1410.871 C 434.497 1426.711 421.489 1439.538 405.443 1439.538 Z M 798.998 261.541 C 901.111 261.541 983.89 343.214 983.89 443.97 C 983.89 544.726 901.111 626.405 798.998 626.405 C 696.885 626.405 614.107 544.726 614.107 443.97 C 614.107 343.214 696.885 261.541 798.998 261.541 Z M 1221.609 152.075 L 397.519 152.075 C 362.654 152.075 334.128 180.221 334.128 214.621 L 334.128 1413.485 C 334.128 1447.885 362.654 1476.031 397.519 1476.031 L 1221.609 1476.031 C 1256.475 1476.031 1285 1447.885 1285 1413.485 L 1285 214.621 C 1285 180.221 1256.475 152.075 1221.609 152.075" style="fill:#211c1d;fill-opacity:1;fill-rule:nonzero;stroke:none" id="path422"/>
  <path d="M 801.064 550.1 C 862.332 550.1 912 502.26 912 443.245 C 912 384.231 862.332 336.391 801.064 336.391 C 739.796 336.391 690.128 384.231 690.128 443.245 C 690.128 502.26 739.796 550.1 801.064 550.1" style="fill:#211c1d;fill-opacity:1;fill-rule:nonzero;stroke:none" id="path418"/>
  <path d="M 813.616 1169.116 C 752.348 1169.116 702.682 1121.275 702.682 1062.262 C 702.682 1003.247 752.348 955.406 813.616 955.406 C 874.884 955.406 924.552 1003.247 924.552 1062.262 C 924.552 1121.275 874.884 1169.116 813.616 1169.116 Z M 810.975 825.096 C 678.229 825.096 570.616 928.945 570.616 1057.049 C 570.616 1185.154 678.229 1289.003 810.975 1289.003 C 943.723 1289.003 1051.334 1185.154 1051.334 1057.049 C 1051.334 928.945 943.723 825.096 810.975 825.096" style="fill:#211c1d;fill-opacity:1;fill-rule:nonzero;stroke:none" id="path420"/>
</svg>